#!Matlab matrix to amc conversion
:FULLY-SPECIFIED
:DEGREES
136
root -1.935578 0.577254 54.046661 4.749447 4.275728 1.753603
lowerback -5.395985 -4.356288 -5.333243
upperback -2.072183 -5.595495 3.346926
thorax 1.655527 -2.806679 6.055774
lowerneck -22.734320 -0.716615 -11.800538
upperneck 28.572995 0.045461 10.621821
head 13.444368 0.192253 6.311064
rclavicle 0.000000 -0.000000
rhumerus -48.345588 -16.713105 -59.225268
rradius 13.219252
rwrist 26.261559
rhand -28.856200 -18.800500
rfingers 7.125020
rthumb -2.212790 -48.768800
lclavicle 0.000000 -0.000000
lhumerus -20.755502 -19.786318 90.879959
lradius 51.305284
lwrist 21.350415
lhand -19.668800 -28.799300
lfingers 7.125020
lthumb 6.659510 1.076010
rfemur -33.633374 -6.607017 25.859457
rtibia 41.003476
rfoot 1.642988 11.055315
rtoes -20.766800
lfemur 21.239860 9.739711 -16.578248
ltibia 19.053016
lfoot 27.735801 14.022634
ltoes -22.051700
137
root -1.999977 0.703890 54.476563 4.834813 4.539980 0.547941
lowerback -5.061033 -4.160152 -4.261733
upperback -2.131013 -5.421525 3.773892
thorax 1.335275 -2.705597 5.942756
lowerneck -22.548005 -1.013402 -12.012591
upperneck 28.238265 -0.437184 11.021132
head 13.340680 0.013138 6.405507
rclavicle 0.000000 -0.000000
rhumerus -47.643705 -19.449834 -56.961070
rradius 13.539706
rwrist 27.751098
rhand -28.856200 -18.800500
rfingers 7.125020
rthumb -2.212790 -48.768800
lclavicle 0.000000 -0.000000
lhumerus -23.498812 -20.494914 92.667782
lradius 50.210227
lwrist 21.046112
lhand -19.668800 -28.799300
lfingers 7.125020
lthumb 6.659510 1.076010
rfemur -31.956576 -6.331153 26.679684
rtibia 41.151190
rfoot -1.543614 11.701781
rtoes -20.766800
lfemur 14.903700 9.566494 -14.630906
ltibia 30.471986
lfoot 32.774075 22.327669
ltoes -22.051700
138
root -2.062068 0.836369 54.872445 4.877789 4.921041 -0.586703
lowerback -4.733585 -3.964198 -3.305174
upperback -2.207672 -5.225298 4.202295
thorax 1.011122 -2.597365 5.890087
lowerneck -22.437147 -1.453622 -12.319787
upperneck 27.686887 -1.076284 11.462956
head 13.194916 -0.235081 6.495704
rclavicle 0.000000 -0.000000
rhumerus -46.590166 -19.730256 -57.089990
rradius 14.589230
rwrist 25.781710
rhand -28.856200 -18.800500
rfingers 7.125020
rthumb -2.212790 -48.768800
lclavicle 0.000000 -0.000000
lhumerus -25.471948 -21.205340 94.382807
lradius 48.488584
lwrist 20.213664
lhand -19.668800 -28.799300
lfingers 7.125020
lthumb 6.659510 1.076010
rfemur -29.891074 -5.835071 27.233526
rtibia 39.824821
rfoot -4.629371 11.785221
rtoes -20.766800
lfemur 8.098624 9.084175 -13.009681
ltibia 41.436818
lfoot 34.677292 29.574572
ltoes -22.051700
139
root -2.118457 0.964924 55.239691 4.918191 5.167456 -1.349364
lowerback -4.613736 -3.670634 -2.701042
upperback -2.193972 -4.866709 4.420482
thorax 0.885955 -2.415001 5.815901
lowerneck -22.317463 -1.939360 -12.520202
upperneck 27.163730 -1.787999 11.794613
head 13.072890 -0.520415 6.510217
rclavicle 0.000000 -0.000000
rhumerus -45.317100 -18.926121 -58.498850
rradius 15.458456
rwrist 22.876643
rhand -28.856200 -18.800500
rfingers 7.125020
rthumb -2.212790 -48.768800
lclavicle 0.000000 -0.000000
lhumerus -26.597445 -22.144294 95.908506
lradius 46.283376
lwrist 19.441287
lhand -19.668800 -28.799300
lfingers 7.125020
lthumb 6.659510 1.076010
rfemur -27.473810 -5.407519 27.608475
rtibia 37.530191
rfoot -6.739599 11.619598
rtoes -20.766800
lfemur 2.453365 8.706760 -12.185618
ltibia 49.160689
lfoot 34.820957 35.420899
ltoes -22.051700
140
root -2.167392 1.081734 55.588209 5.011659 5.175454 -1.728342
lowerback -4.727763 -3.256007 -2.450218
upperback -2.081646 -4.321020 4.405239
thorax 0.980096 -2.145033 5.697469
lowerneck -22.188007 -2.434049 -12.555227
upperneck 26.827647 -2.552960 11.998485
head 13.029940 -0.831454 6.444157
rclavicle 0.000000 -0.000000
rhumerus -43.972044 -17.697143 -60.575426
rradius 15.962771
rwrist 19.956309
rhand -28.856200 -18.800500
rfingers 7.125020
rthumb -2.212790 -48.768800
lclavicle 0.000000 -0.000000
lhumerus -26.976902 -23.071969 97.165637
lradius 43.554279
lwrist 18.573743
lhand -19.668800 -28.799300
lfingers 7.125020
lthumb 6.659510 1.076010
rfemur -24.833416 -5.064073 27.806041
rtibia 34.621128
rfoot -8.090365 11.357520
rtoes -20.766800
lfemur -2.192048 8.609594 -12.156000
ltibia 54.208798
lfoot 33.587198 39.978361
ltoes -22.051700
141
root -2.208213 1.179036 55.925541 5.083183 4.992655 -1.938606
lowerback -4.926140 -2.757566 -2.347555
upperback -1.953792 -3.652765 4.287200
thorax 1.134039 -1.815549 5.556822
lowerneck -22.168774 -2.972957 -12.536248
upperneck 26.525079 -3.379850 12.154572
head 13.030947 -1.167395 6.341835
rclavicle 0.000000 -0.000000
rhumerus -42.338865 -15.185873 -63.798527
rradius 16.624607
rwrist 15.915094
rhand -28.856200 -18.800500
rfingers 7.125020
rthumb -2.212790 -48.768800
lclavicle 0.000000 -0.000000
lhumerus -26.984976 -23.572896 98.263134
lradius 40.138323
lwrist 17.112674
lhand -19.668800 -28.799300
lfingers 7.125020
lthumb 6.659510 1.076010
rfemur -21.891759 -4.505293 27.879010
rtibia 31.192944
rfoot -9.025898 10.730605
rtoes -20.766800
lfemur -6.737768 8.683615 -12.715231
ltibia 58.141536
lfoot 30.660742 43.232033
ltoes -22.051700
142
root -2.239715 1.248601 56.256828 5.113151 4.573388 -2.005640
lowerback -5.151933 -2.196203 -2.318329
upperback -1.871821 -2.896145 4.103144
thorax 1.256799 -1.440678 5.391056
lowerneck -22.286030 -3.508067 -12.500673
upperneck 26.272451 -4.172374 12.237328
head 13.074123 -1.493560 6.217095
rclavicle 0.000000 -0.000000
rhumerus -40.579246 -11.509684 -67.604895
rradius 17.723046
rwrist 11.409899
rhand -28.856200 -18.800500
rfingers 7.125020
rthumb -2.212790 -48.768800
lclavicle 0.000000 -0.000000
lhumerus -27.121529 -23.610035 99.325612
lradius 36.383375
lwrist 15.450577
lhand -19.668800 -28.799300
lfingers 7.125020
lthumb 6.659510 1.076010
rfemur -18.852885 -3.682034 27.853004
rtibia 27.840319
rfoot -9.654209 9.937027
rtoes -20.766800
lfemur -11.072218 8.949758 -13.710122
ltibia 60.821522
lfoot 28.130944 46.555840
ltoes -22.051700
143
root -2.262212 1.285591 56.584445 5.155203 4.014085 -2.059033
lowerback -5.378620 -1.658337 -2.198135
upperback -1.780696 -2.175773 3.861605
thorax 1.388934 -1.083784 5.106801
lowerneck -22.489830 -3.915121 -12.365006
upperneck 26.222776 -4.797688 12.230512
head 13.183579 -1.746584 6.080735
rclavicle 0.000000 -0.000000
rhumerus -39.177934 -7.651613 -71.308811
rradius 18.780584
rwrist 7.240560
rhand -28.856200 -18.800500
rfingers 7.125020
rthumb -2.212790 -48.768800
lclavicle 0.000000 -0.000000
lhumerus -27.099003 -22.605493 99.671980
lradius 32.872442
lwrist 13.068107
lhand -19.668800 -28.799300
lfingers 7.125020
lthumb 6.659510 1.076010
rfemur -16.315309 -2.938046 27.972288
rtibia 25.074697
rfoot -10.282065 9.045949
rtoes -20.766800
lfemur -14.903289 9.544345 -14.903955
ltibia 62.870580
lfoot 24.096632 46.899534
ltoes -22.051700
144
root -2.277787 1.294006 56.912152 5.234634 3.375815 -2.147588
lowerback -5.556786 -1.155918 -1.973139
upperback -1.704512 -1.508491 3.617336
thorax 1.482655 -0.752604 4.756071
lowerneck -22.698577 -4.201063 -12.205095
upperneck 26.299584 -5.252511 12.180834
head 13.315456 -1.928687 5.960292
rclavicle 0.000000 -0.000000
rhumerus -38.056525 -3.765046 -74.700456
rradius 19.918764
rwrist 3.461164
rhand -28.856200 -18.800500
rfingers 7.125020
rthumb -2.212790 -48.768800
lclavicle 0.000000 -0.000000
lhumerus -27.258845 -20.819357 99.468139
lradius 29.766908
lwrist 10.231635
lhand -19.668800 -28.799300
lfingers 7.125020
lthumb 6.659510 1.076010
rfemur -14.171041 -2.366074 28.248047
rtibia 22.891378
rfoot -11.002588 8.230057
rtoes -20.766800
lfemur -18.515865 10.296920 -16.128122
ltibia 64.464442
lfoot 19.245241 45.079497
ltoes -22.051700
145
root -2.288549 1.280423 57.241450 5.360122 2.574486 -2.228665
lowerback -5.734929 -0.624510 -1.696188
upperback -1.680042 -0.805209 3.382408
thorax 1.519246 -0.401825 4.388240
lowerneck -22.920903 -4.453625 -12.060006
upperneck 26.365747 -5.630744 12.073489
head 13.433516 -2.086576 5.830766
rclavicle 0.000000 -0.000000
rhumerus -37.079228 0.314230 -77.585562
rradius 21.598464
rwrist 0.024324
rhand -28.856200 -18.800500
rfingers 7.125020
rthumb -2.212790 -48.768800
lclavicle 0.000000 -0.000000
lhumerus -27.963979 -19.033347 99.329118
lradius 27.019436
lwrist 7.994550
lhand -19.668800 -28.799300
lfingers 7.125020
lthumb 6.659510 1.076010
rfemur -11.971030 -1.801659 28.558026
rtibia 20.752798
rfoot -11.759620 7.671471
rtoes -20.766800
lfemur -21.970924 11.147110 -17.297002
ltibia 64.811730
lfoot 17.211964 45.608339
ltoes -22.051700
